<?xml version="1.0" encoding="UTF-8" standalone="no"?>
<svg
   xmlns:dc="http://purl.org/dc/elements/1.1/"
   xmlns:cc="http://creativecommons.org/ns#"
   xmlns:rdf="http://www.w3.org/1999/02/22-rdf-syntax-ns#"
   xmlns:svg="http://www.w3.org/2000/svg"
   xmlns="http://www.w3.org/2000/svg"
   xmlns:sodipodi="http://sodipodi.sourceforge.net/DTD/sodipodi-0.dtd"
   xmlns:inkscape="http://www.inkscape.org/namespaces/inkscape"
   version="1.0"
   width="400"
   height="400"
   viewBox="0 0 300 300.00001"
   preserveAspectRatio="xMidYMid meet"
   id="svg16"
   sodipodi:docname="vhdl2verilog.svg"
   inkscape:version="0.92.4 5da689c313, 2019-01-14">
  <defs
     id="defs20" />
  <sodipodi:namedview
     pagecolor="#ffffff"
     bordercolor="#666666"
     borderopacity="1"
     objecttolerance="10"
     gridtolerance="10"
     guidetolerance="10"
     inkscape:pageopacity="0"
     inkscape:pageshadow="2"
     inkscape:window-width="1533"
     inkscape:window-height="845"
     id="namedview18"
     showgrid="false"
     fit-margin-top="0"
     fit-margin-left="0"
     fit-margin-right="0"
     fit-margin-bottom="0"
     units="px"
     inkscape:zoom="0.1475"
     inkscape:cx="-2472.2699"
     inkscape:cy="355.19945"
     inkscape:window-x="67"
     inkscape:window-y="27"
     inkscape:window-maximized="1"
     inkscape:current-layer="svg16" />
  <metadata
     id="metadata2">
Created by potrace 1.15, written by Peter Selinger 2001-2017
<rdf:RDF>
  <cc:Work
     rdf:about="">
    <dc:format>image/svg+xml</dc:format>
    <dc:type
       rdf:resource="http://purl.org/dc/dcmitype/StillImage" />
    <dc:title></dc:title>
  </cc:Work>
</rdf:RDF>
</metadata>
  <g
     transform="matrix(0.05,0,0,-0.05002257,0,300)"
     id="g14"
     style="fill:#ff2a2a;stroke:none">
    <path
       d="m 957,5985 c -88,-33 -173,-122 -196,-207 -9,-32 -11,-351 -9,-1248 l 3,-1205 29,-53 c 36,-65 82,-107 156,-141 l 55,-26 863,-5 864,-5 29,-33 c 40,-45 39,-84 -5,-128 l -34,-34 h -222 c -122,0 -220,-4 -218,-8 8,-21 646,-721 670,-736 33,-21 83,-21 116,0 24,15 662,715 670,736 2,4 -96,8 -218,8 h -222 l -34,34 c -44,44 -45,83 -5,128 l 29,33 864,5 863,5 55,26 c 74,34 120,76 156,141 l 29,53 v 1225 1225 l -23,47 c -30,60 -90,120 -150,150 l -47,23 -2015,2 c -1713,1 -2021,0 -2053,-12 z m 934,-344 c 16,-16 29,-39 29,-50 0,-20 5,-21 165,-21 178,0 219,-8 249,-51 38,-54 0,-142 -67,-154 -30,-6 -33,-11 -55,-88 -39,-139 -101,-262 -193,-382 l -49,-64 58,-39 c 31,-22 84,-54 117,-72 74,-41 94,-65 95,-110 0,-66 -62,-117 -123,-99 -34,10 -159,83 -238,140 l -56,40 -97,-65 c -182,-124 -242,-142 -297,-87 -35,35 -39,86 -10,122 10,14 59,48 108,77 48,29 101,62 116,75 l 27,22 -60,80 c -33,44 -75,109 -94,145 -32,61 -87,211 -100,271 -4,20 -14,28 -36,33 -17,3 -41,17 -55,30 -34,34 -41,71 -21,113 26,54 60,63 250,63 h 164 l 6,26 c 19,74 113,99 167,45 z m 2458,2 c 25,-24 53,-101 196,-531 120,-361 165,-510 161,-528 -11,-42 -53,-74 -98,-74 -63,0 -88,33 -139,188 l -43,132 h -141 -141 l -44,-135 c -49,-149 -74,-186 -129,-187 -45,-1 -77,19 -97,61 l -17,36 167,505 c 184,554 187,560 261,560 24,0 44,-8 64,-27 z M 3043,5449 c 64,-33 76,-107 26,-164 l -31,-35 h 188 c 217,0 257,-7 284,-53 28,-45 25,-81 -9,-119 l -29,-33 -216,-3 -215,-3 29,-41 c 34,-47 37,-77 13,-118 -19,-33 -52,-50 -95,-50 -26,0 -50,19 -156,123 -128,126 -154,163 -145,208 3,17 54,76 142,163 144,142 161,152 214,125 z M 4653,4159 c 63,-29 72,-116 16,-163 l -31,-26 H 3000 1362 l -31,26 c -53,45 -50,116 8,161 22,17 3278,19 3314,2 z m 8,-432 c 56,-37 61,-113 13,-158 l -26,-24 h -898 -898 l -26,24 c -63,59 -37,144 54,175 8,2 407,4 885,3 819,-2 872,-3 896,-20 z"
       id="path4"
       style="fill:#ff2a2a"
       inkscape:connector-curvature="0" />
    <path
       d="m 1625,5328 c 19,-87 101,-246 164,-318 l 31,-35 39,43 c 60,69 161,273 161,329 0,10 -39,13 -201,13 h -201 z"
       id="path6"
       style="fill:#ff2a2a"
       inkscape:connector-curvature="0" />
    <path
       d="m 4251,5148 c -17,-51 -31,-99 -31,-106 0,-8 21,-12 69,-12 h 70 l -35,102 c -18,55 -36,103 -38,105 -2,2 -18,-38 -35,-89 z"
       id="path8"
       style="fill:#ff2a2a"
       inkscape:connector-curvature="0" />
    <path
       d="m 2061,1389 c -109,-13 -241,-51 -392,-113 -359,-146 -624,-196 -1052,-196 -267,0 -303,-6 -328,-51 -11,-21 -48,-152 -49,-171 0,-5 1242,-8 2760,-8 1518,0 2760,3 2760,8 -1,19 -38,150 -49,171 -25,45 -61,51 -328,51 -428,0 -693,50 -1051,196 -259,106 -456,139 -704,116 -274,-25 -442,-99 -523,-231 -37,-60 -66,-81 -111,-81 -40,0 -60,16 -99,79 -55,92 -146,151 -297,195 -144,41 -359,55 -537,35 z"
       id="path10"
       style="fill:#ff2a2a"
       inkscape:connector-curvature="0" />
    <path
       d="M 0,535 V 420 l 1113,-2 1113,-3 75,-37 c 76,-37 81,-42 234,-214 93,-105 261,-164 465,-164 205,0 375,60 466,166 131,151 158,175 233,212 l 75,37 1113,3 1113,2 V 535 650 H 3000 0 Z"
       id="path12"
       style="fill:#ff2a2a"
       inkscape:connector-curvature="0" />
  </g>
</svg>
